<?xml version="1.0" ?><svg viewBox="0 0 393.94 300.82" xmlns="http://www.w3.org/2000/svg"><defs><style>.cls-1{fill:#020203;opacity:0.15;}.cls-2{fill:#139334;}.cls-3{fill:#0094da;}.cls-4{fill:#e2000f;}.cls-5{fill:#fbbd00;}.cls-6{fill:#fff;}.cls-7{fill:none;stroke:#fff;stroke-miterlimit:10;stroke-width:1.77px;}</style></defs><title/><g data-name="Capa 2" id="Capa_2"><g data-name="Capa 1" id="Capa_1-2"><polygon class="cls-1" points="88.61 241.41 0 197.76 204.34 123.86 344.79 173.41 88.61 241.41"/><polygon class="cls-2" points="268.6 149.75 88.84 227.39 81.67 225.57 34.51 49.83 242.21 0 251.27 0.74 268.6 149.75"/><polygon class="cls-2" points="88.61 241.41 210.01 300.82 393.7 206.97 393.94 192.95 277.57 160.88 88.84 227.39 88.61 241.41"/><polygon class="cls-3" points="88.84 227.39 210.24 286.8 393.94 192.95 277.81 146.87 88.84 227.39"/><polygon class="cls-4" points="277.81 146.87 88.84 227.39 42.11 52.22 251.27 0.74 277.81 146.87"/><polygon class="cls-5" points="267.44 142.84 99.2 214.54 57.59 58.57 243.81 12.74 267.44 142.84"/><polygon class="cls-6" points="101.02 47.86 75.48 121.16 83.93 160.13 135.18 39.42 101.02 47.86"/><polygon class="cls-6" points="143.62 37.63 87.3 168.76 90.63 185.23 155.7 34.64 143.62 37.63"/><polygon class="cls-7" points="120.71 226.27 188 257.19 206.06 249.05 344.98 186.43 278.94 158.27 141.01 217.55 120.71 226.27"/><line class="cls-7" x1="138.86" x2="206.06" y1="218.83" y2="249.05"/><line class="cls-7" x1="134.91" x2="292.28" y1="232.77" y2="164.3"/><line class="cls-7" x1="151.67" x2="309.05" y1="239.78" y2="171.31"/><line class="cls-7" x1="170.13" x2="327.51" y1="247.73" y2="179.26"/><line class="cls-7" x1="157.31" x2="224.5" y1="210.93" y2="241.16"/><line class="cls-7" x1="173.46" x2="240.66" y1="203.3" y2="233.53"/><line class="cls-7" x1="190.17" x2="256.54" y1="196.29" y2="226.21"/><line class="cls-7" x1="206.88" x2="272.76" y1="189.27" y2="218.96"/><line class="cls-7" x1="224.17" x2="289.48" y1="181.97" y2="211.49"/><line class="cls-7" x1="241.47" x2="306.13" y1="174.66" y2="204.02"/><line class="cls-7" x1="257.02" x2="320.84" y1="168.54" y2="197.35"/><line class="cls-7" x1="270.28" x2="334.32" y1="162.38" y2="191.27"/><polygon class="cls-6" points="219.38 225.48 257.51 244.14 315.21 214.66 278.73 200.18 219.38 225.48"/></g></g></svg>